<svg width="18" height="21" viewBox="0 0 18 21" fill="none" xmlns="http://www.w3.org/2000/svg">
<path fill-rule="evenodd" clip-rule="evenodd" d="M15.8267 6.87225C15.1627 6.657 13.6013 6.65963 11.3175 6.58481C11.4253 5.96925 11.4503 5.41406 11.4503 4.42837C11.4503 2.07375 10.0616 0 8.83337 0C7.96584 0 7.25078 0.876094 7.23962 1.95366C7.22794 3.27534 6.89697 5.55778 5.11462 6.71541C4.98394 6.80072 4.60994 7.02844 4.55522 7.05797L4.58337 7.0875C4.30447 6.79022 3.91772 6.5625 3.52087 6.5625H1.92712C1.04844 6.5625 0.333374 7.44581 0.333374 8.53125V19.0312C0.333374 20.1167 1.04844 21 1.92712 21H3.52087C4.15306 21 4.68219 20.5282 4.93825 19.8667C4.94462 19.8693 4.95578 19.8732 4.96322 19.8745C4.99828 19.8863 5.03972 19.8988 5.09019 19.9152C5.09975 19.9185 5.10453 19.9198 5.11462 19.9231C5.42062 20.0169 6.00978 20.1908 7.26884 20.5485C7.53872 20.6246 8.96459 21 10.4415 21H13.3458C14.2309 21 14.8689 20.5793 15.2487 19.7348C15.2541 19.7216 15.3762 19.427 15.4761 19.0286C15.551 18.7287 15.5787 18.3041 15.4883 17.8736C16.0589 17.3893 16.2427 16.6569 16.3622 16.1805C16.5625 15.3989 16.5025 14.8116 16.3633 14.3909C16.6842 14.0168 16.9578 13.4466 17.0731 12.5757C17.1448 12.0363 17.0677 11.4811 16.8664 11.0191C17.1671 10.6017 17.3042 10.0767 17.3201 9.59109L17.3265 9.45394C17.3302 9.36797 17.3334 9.31481 17.3334 9.12581C17.3334 8.29697 16.8685 7.23975 15.8267 6.87225ZM4.05212 19.0312C4.05212 19.3942 3.81466 19.6875 3.52087 19.6875H1.92712C1.63334 19.6875 1.39587 19.3942 1.39587 19.0312V8.53125C1.39587 8.16834 1.63334 7.875 1.92712 7.875H3.52087C3.81466 7.875 4.05212 8.16834 4.05212 8.53125V19.0312ZM16.2587 9.53859C16.248 9.86278 16.1381 10.5 15.2084 10.5C14.4115 10.5 14.1459 10.5 14.1459 10.5C13.9987 10.5 13.8802 10.647 13.8802 10.8281C13.8802 11.0092 13.9987 11.1562 14.1459 11.1562C14.1459 11.1562 14.3786 11.1562 15.1754 11.1562C15.9723 11.1562 16.077 11.9726 16.0254 12.3664C15.9596 12.8559 15.7736 13.7812 14.8763 13.7812C13.9801 13.7812 13.6146 13.7812 13.6146 13.7812C13.4675 13.7812 13.349 13.9276 13.349 14.1094C13.349 14.2898 13.4675 14.4375 13.6146 14.4375C13.6146 14.4375 14.2457 14.4375 14.6607 14.4375C15.5574 14.4375 15.4782 15.2821 15.3497 15.7861C15.1802 16.4482 15.0766 17.0625 13.9467 17.0625C13.5647 17.0625 13.0802 17.0625 13.0802 17.0625C12.933 17.0625 12.8146 17.2088 12.8146 17.3906C12.8146 17.5711 12.933 17.7188 13.0802 17.7188C13.0802 17.7188 13.4483 17.7188 13.9132 17.7188C14.4944 17.7188 14.5215 18.398 14.4609 18.6414C14.3945 18.9079 14.3159 19.1054 14.3127 19.1146C14.1522 19.4722 13.8935 19.6875 13.3458 19.6875H10.4415C8.98266 19.6875 7.53553 19.2787 7.49834 19.2682C5.29153 18.6401 5.17519 18.5916 5.03653 18.543C5.03653 18.543 4.58709 18.4492 4.58709 17.9648L4.58337 8.90072C4.58337 8.59294 4.74222 8.31469 5.00519 8.21691C5.03812 8.20116 5.08275 8.18409 5.11462 8.16769C7.54137 6.92606 8.28034 4.20394 8.30212 1.96875C8.30531 1.65441 8.50134 1.3125 8.83337 1.3125C9.39491 1.3125 10.3878 2.70506 10.3878 4.42838C10.3878 5.98434 10.3368 6.25341 9.89587 7.875C15.2084 7.875 15.1712 7.9695 15.6397 8.12109C16.2209 8.3265 16.2709 8.92106 16.2709 9.12581C16.2709 9.35091 16.2656 9.31809 16.2587 9.53859Z" fill="white"/>
</svg>
