<svg width="91" height="27" viewBox="0 0 91 27" fill="none" xmlns="http://www.w3.org/2000/svg">
<path d="M16.7383 22.0724V26.1857H3.85352V22.0724H16.7383ZM5.55859 0.591965V26.1857H0.285156V0.591965H5.55859ZM33.2969 0.591965H38.5527V17.5021C38.5527 19.4709 38.1309 21.1291 37.2871 22.4767C36.4551 23.8244 35.3008 24.8381 33.8242 25.5177C32.3594 26.1974 30.6719 26.5373 28.7617 26.5373C26.8516 26.5373 25.1523 26.1974 23.6641 25.5177C22.1875 24.8381 21.0273 23.8244 20.1836 22.4767C19.3516 21.1291 18.9355 19.4709 18.9355 17.5021V0.591965H24.209V17.5021C24.209 18.6506 24.3906 19.5881 24.7539 20.3146C25.1172 21.0412 25.6387 21.5744 26.3184 21.9142C27.0098 22.2541 27.8242 22.424 28.7617 22.424C29.7227 22.424 30.5371 22.2541 31.2051 21.9142C31.8848 21.5744 32.4004 21.0412 32.752 20.3146C33.1152 19.5881 33.2969 18.6506 33.2969 17.5021V0.591965ZM63.7246 0.591965V26.1857H58.4512L48.168 9.02946V26.1857H42.8945V0.591965H48.168L58.4688 17.7658V0.591965H63.7246ZM79.0352 4.96892L72.0742 26.1857H66.4668L75.9766 0.591965H79.5449L79.0352 4.96892ZM84.8184 26.1857L77.8398 4.96892L77.2773 0.591965H80.8809L90.4434 26.1857H84.8184ZM84.502 16.6584V20.7892H70.9844V16.6584H84.502Z" fill="black"/>
</svg>
